# xmcd
# 
# Track frame offsets:
#     150
#     21603
#     42242
#     64265
#     85882
#     109649
#     136072
#     163579
#     187903
#     210192
#     234772
#     259582
#     280035
#     299999
#     318561
# 
# Disc length: 4601
# 
# Revision: 0
# Processed by: cddbd v1.5.2PL0 Copyright (c) Steve Scherf et al.
# Submitted via: fre:ac v1.0.31
# 
DISCID=d211f70f
DTITLE=佐藤竹善 - 3 STEPS and MORE
DYEAR=2015
DGENRE=JPOP
TTITLE0=CRY ( For Africa)
TTITLE1=WIND OF CHANGE
TTITLE2=BACK IN LOVE
TTITLE3=十三夜の月
TTITLE4=夢みたものは
TTITLE5=ECHOES
TTITLE6=BLUE
TTITLE7=今日も君に恋をした
TTITLE8=風光る
TTITLE9=CHOICE
TTITLE10=HEY!!
TTITLE11=風模様
TTITLE12=純粋～しずく～
TTITLE13=音のない音
TTITLE14=届いたらいいな　～Gratitude～
EXTD=
EXTT0=
EXTT1=
EXTT2=
EXTT3=
EXTT4=
EXTT5=
EXTT6=
EXTT7=
EXTT8=
EXTT9=
EXTT10=
EXTT11=
EXTT12=
EXTT13=
EXTT14=
PLAYORDER=
